#!OML:ASF H:\Dans Jumps\Project 1\Capture day 1\Session 1\subject.ASF
:FULLY-SPECIFIED
:DEGREES
532
root 0.119908 17.6853 10.5058 6.35737 -1.85908 -1.48137
lowerback -5.53903 0.432981 0.393161
upperback -0.5804 0.515525 1.38823
thorax 2.4985 0.254718 1.24656
lowerneck -15.7462 0.277997 -2.21273
upperneck 16.7812 0.675628 1.22992
head 7.7626 0.300521 0.846052
rclavicle 1.17283e-014 -4.77083e-015
rhumerus -25.8961 -15.9408 -81.8921
rradius 21.5143
rwrist 41.1794
rhand -15.8645 -25.8195
rfingers 7.12502
rthumb 10.3309 -55.5457
lclavicle 1.17283e-014 -4.77083e-015
lhumerus -22.946 1.83973 90.9566
lradius 14.3373
lwrist -2.73914
lhand -23.8995 -7.40487
lfingers 7.12502
lthumb 2.57443 22.5593
rfemur -10.0087 -2.48569 19.7045
rtibia 19.2678
rfoot -14.7315 2.64331
rtoes 15.2371
lfemur -8.21452 8.0389 -17.7397
ltibia 16.2215
lfoot -10.9823 7.0293
ltoes -7.43598
533
root 0.118816 17.6854 10.5033 6.3469 -1.8426 -1.47802
lowerback -5.53664 0.43781 0.397434
upperback -0.568066 0.521798 1.37938
thorax 2.50987 0.257884 1.23559
lowerneck -15.7427 0.266317 -2.23978
upperneck 16.7778 0.660708 1.25735
head 7.76094 0.294408 0.857874
rclavicle -4.46023e-015 -2.14687e-014
rhumerus -25.8929 -15.9727 -81.8606
rradius 21.4811
rwrist 41.2521
rhand -15.863 -25.8234
rfingers 7.12502
rthumb 10.3323 -55.5495
lclavicle -4.46023e-015 -2.14687e-014
lhumerus -22.9918 1.92854 90.9016
lradius 14.3007
lwrist -2.88145
lhand -23.8438 -7.34902
lfingers 7.12502
lthumb 2.62821 22.6145
rfemur -10.0046 -2.50515 19.7058
rtibia 19.2677
rfoot -14.7267 2.64728
rtoes 15.2398
lfemur -8.21183 8.03051 -17.7365
ltibia 16.2192
lfoot -10.9825 7.01231
ltoes -7.40244
534
root 0.117647 17.6855 10.5008 6.33686 -1.82583 -1.48079
lowerback -5.53314 0.443215 0.407092
upperback -0.555233 0.528467 1.37239
thorax 2.52116 0.261295 1.22354
lowerneck -15.7415 0.253632 -2.27082
upperneck 16.7751 0.644545 1.28929
head 7.75989 0.287891 0.871717
rclavicle -6.94504e-015 1.61016e-014
rhumerus -25.8887 -15.9997 -81.8304
rradius 21.4499
rwrist 41.3177
rhand -15.8644 -25.8256
rfingers 7.12502
rthumb 10.3309 -55.5518
lclavicle -6.94504e-015 1.61016e-014
lhumerus -23.033 2.00948 90.8452
lradius 14.2566
lwrist -3.00979
lhand -23.7845 -7.29046
lfingers 7.12502
lthumb 2.68546 22.6724
rfemur -9.99975 -2.51287 19.7145
rtibia 19.2648
rfoot -14.7197 2.64001
rtoes 15.2447
lfemur -8.21354 8.01955 -17.7261
ltibia 16.2226
lfoot -10.9818 6.99923
ltoes -7.36941
535
root 0.11648 17.6855 10.498 6.32947 -1.80809 -1.48599
lowerback -5.52804 0.448243 0.419049
upperback -0.542993 0.534504 1.36607
thorax 2.53096 0.264419 1.21081
lowerneck -15.7488 0.241452 -2.30027
upperneck 16.7774 0.628945 1.32091
head 7.762 0.281701 0.885331
rclavicle 5.49143e-015 8.94531e-015
rhumerus -25.882 -16.0255 -81.8014
rradius 21.4178
rwrist 41.3776
rhand -15.8696 -25.8245
rfingers 7.12502
rthumb 10.326 -55.551
lclavicle 5.49143e-015 8.94531e-015
lhumerus -23.0691 2.07347 90.7887
lradius 14.2095
lwrist -3.11434
lhand -23.7228 -7.22765
lfingers 7.12502
lthumb 2.74507 22.7344
rfemur -9.99845 -2.51462 19.7265
rtibia 19.261
rfoot -14.7108 2.62577
rtoes 15.245
lfemur -8.22223 8.00594 -17.7138
ltibia 16.2301
lfoot -10.9772 6.99047
ltoes -7.34719
536
root 0.115324 17.6856 10.495 6.32188 -1.78898 -1.49303
lowerback -5.51888 0.452983 0.432781
upperback -0.531936 0.540103 1.36033
thorax 2.5373 0.267351 1.1976
lowerneck -15.7573 0.228364 -2.33039
upperneck 16.7828 0.612533 1.3513
head 7.76541 0.274945 0.898584
rclavicle -6.98231e-015 -1.19271e-015
rhumerus -25.8756 -16.0523 -81.7722
rradius 21.3844
rwrist 41.4305
rhand -15.8742 -25.8281
rfingers 7.12502
rthumb 10.3215 -55.5549
lclavicle -6.98231e-015 -1.19271e-015
lhumerus -23.1031 2.13505 90.7293
lradius 14.16
lwrist -3.21422
lhand -23.664 -7.16604
lfingers 7.12502
lthumb 2.80186 22.7953
rfemur -9.99689 -2.51291 19.7408
rtibia 19.2571
rfoot -14.7018 2.60585
rtoes 15.2388
lfemur -8.23352 7.99121 -17.6995
ltibia 16.2406
lfoot -10.972 6.98448
ltoes -7.33069
537
root 0.114173 17.6857 10.4918 6.31705 -1.76853 -1.4969
lowerback -5.50812 0.457371 0.443006
upperback -0.523695 0.545527 1.35397
thorax 2.53982 0.270175 1.18567
lowerneck -15.7672 0.21775 -2.35325
upperneck 16.7884 0.599367 1.37367
head 7.76909 0.269412 0.90836
rclavicle 4.8578e-015 -1.21259e-014
rhumerus -25.8736 -16.08 -81.7411
rradius 21.3523
rwrist 41.4763
rhand -15.8755 -25.8319
rfingers 7.12502
rthumb 10.3202 -55.5586
lclavicle 4.8578e-015 -1.21259e-014
lhumerus -23.1379 2.18377 90.6699
lradius 14.1101
lwrist -3.30195
lhand -23.6049 -7.10102
lfingers 7.12502
lthumb 2.85889 22.8596
rfemur -10.0002 -2.50922 19.7519
rtibia 19.2555
rfoot -14.6938 2.58133
rtoes 15.2294
lfemur -8.24961 7.97689 -17.6895
ltibia 16.2512
lfoot -10.9642 6.9772
ltoes -7.3195
538
root 0.113054 17.6859 10.4884 6.3142 -1.74706 -1.49872
lowerback -5.49359 0.461862 0.450679
upperback -0.519153 0.551359 1.34719
thorax 2.53641 0.273195 1.1747
lowerneck -15.7819 0.209787 -2.36713
upperneck 16.8008 0.589726 1.38611
head 7.7759 0.265126 0.913828
rclavicle 7.47927e-015 -1.35174e-014
rhumerus -25.8748 -16.1182 -81.7058
rradius 21.3172
rwrist 41.522
rhand -15.8732 -25.8315
rfingers 7.12502
rthumb 10.3224 -55.5581
lclavicle 7.47927e-015 -1.35174e-014
lhumerus -23.1792 2.22365 90.609
lradius 14.0687
lwrist -3.38241
lhand -23.5549 -7.03774
lfingers 7.12502
lthumb 2.90718 22.9222
rfemur -10.0071 -2.50708 19.761
rtibia 19.256
rfoot -14.6864 2.55517
rtoes 15.2139
lfemur -8.26886 7.96248 -17.6824
ltibia 16.2613
lfoot -10.9559 6.96926
ltoes -7.31063
539
root 0.111914 17.6862 10.4851 6.31294 -1.72426 -1.4964
lowerback -5.47605 0.465596 0.452386
upperback -0.518943 0.556647 1.34037
thorax 2.52679 0.275899 1.16693
lowerneck -15.8022 0.206456 -2.3693
upperneck 16.8205 0.586262 1.38564
head 7.78606 0.263229 0.913866
rclavicle -1.14301e-015 1.98785e-014
rhumerus -25.8866 -16.1576 -81.6651
rradius 21.286
rwrist 41.5654
rhand -15.8701 -25.8165
rfingers 7.12502
rthumb 10.3255 -55.543
lclavicle -1.14301e-015 1.98785e-014
lhumerus -23.225 2.26328 90.5456
lradius 14.0268
lwrist -3.46395
lhand -23.5072 -6.97219
lfingers 7.12502
lthumb 2.95328 22.9871
rfemur -10.0172 -2.50594 19.7657
rtibia 19.2588
rfoot -14.6814 2.5283
rtoes 15.1985
lfemur -8.28965 7.94829 -17.6804
ltibia 16.2698
lfoot -10.9484 6.95956
ltoes -7.30153
540
root 0.110761 17.6865 10.4816 6.31343 -1.70026 -1.49751
lowerback -5.45588 0.468936 0.455565
upperback -0.521472 0.56134 1.33557
thorax 2.5129 0.278323 1.16032
lowerneck -15.8271 0.206724 -2.36248
upperneck 16.8435 0.587374 1.37646
head 7.79809 0.263218 0.910093
rclavicle -7.96381e-015 -7.35503e-015
rhumerus -25.9017 -16.1973 -81.6214
rradius 21.2557
rwrist 41.6059
rhand -15.8668 -25.7908
rfingers 7.12502
rthumb 10.3286 -55.5172
lclavicle -7.96381e-015 -7.35503e-015
lhumerus -23.2749 2.29144 90.4841
lradius 13.9846
lwrist -3.5326
lhand -23.4729 -6.91306
lfingers 7.12502
lthumb 2.9864 23.0458
rfemur -10.0294 -2.5012 19.7746
rtibia 19.2615
rfoot -14.6758 2.49703
rtoes 15.1843
lfemur -8.31343 7.93367 -17.6746
ltibia 16.279
lfoot -10.9408 6.9487
ltoes -7.29694
541
root 0.109629 17.6868 10.4784 6.31301 -1.67584 -1.49778
lowerback -5.43462 0.472053 0.457167
upperback -0.525384 0.565867 1.3307
thorax 2.49695 0.280653 1.15448
lowerneck -15.8535 0.208796 -2.35137
upperneck 16.8701 0.590533 1.3643
head 7.81157 0.264144 0.904887
rclavicle -3.86388e-015 2.18663e-015
rhumerus -25.9218 -16.2372 -81.5761
rradius 21.2295
rwrist 41.6473
rhand -15.8582 -25.7622
rfingers 7.12502
rthumb 10.337 -55.4882
lclavicle -3.86388e-015 2.18663e-015
lhumerus -23.3278 2.31689 90.4214
lradius 13.9394
lwrist -3.59768
lhand -23.4493 -6.86011
lfingers 7.12502
lthumb 3.00922 23.0984
rfemur -10.0396 -2.49777 19.7822
rtibia 19.263
rfoot -14.6715 2.46632
rtoes 15.1695
lfemur -8.3359 7.9202 -17.6696
ltibia 16.2893
lfoot -10.9355 6.93634
ltoes -7.29168
542
root 0.108529 17.687 10.4754 6.31189 -1.65054 -1.50336
lowerback -5.41197 0.475195 0.463166
upperback -0.530746 0.570139 1.3281
thorax 2.47877 0.282895 1.14846
lowerneck -15.8751 0.210872 -2.34472
upperneck 16.8956 0.593732 1.35689
head 7.82382 0.265267 0.901961
rclavicle 3.86388e-015 3.97569e-015
rhumerus -25.9483 -16.2743 -81.528
rradius 21.2085
rwrist 41.6878
rhand -15.8472 -25.7345
rfingers 7.12502
rthumb 10.3476 -55.4599
lclavicle 3.86388e-015 3.97569e-015
lhumerus -23.3864 2.35031 90.3578
lradius 13.8924
lwrist -3.66781
lhand -23.4264 -6.79904
lfingers 7.12502
lthumb 3.03135 23.1592
rfemur -10.0461 -2.49411 19.7958
rtibia 19.2612
rfoot -14.6659 2.43366
rtoes 15.1495
lfemur -8.35817 7.90975 -17.6585
ltibia 16.3027
lfoot -10.9321 6.92144
ltoes -7.29638
543
root 0.107594 17.6872 10.4726 6.31097 -1.62302 -1.50861
lowerback -5.39073 0.477651 0.46999
upperback -0.535882 0.573431 1.32547
thorax 2.46163 0.284654 1.14189
lowerneck -15.8929 0.211074 -2.34348
upperneck 16.9178 0.594506 1.35497
head 7.83432 0.265442 0.901433
rclavicle 5.59082e-015 -5.1684e-015
rhumerus -25.9758 -16.3043 -81.4813
rradius 21.1913
rwrist 41.7233
rhand -15.831 -25.7218
rfingers 7.12502
rthumb 10.3632 -55.4464
lclavicle 5.59082e-015 -5.1684e-015
lhumerus -23.445 2.39345 90.2916
lradius 13.8445
lwrist -3.74251
lhand -23.4067 -6.73892
lfingers 7.12502
lthumb 3.05033 23.219
rfemur -10.0509 -2.49865 19.8081
rtibia 19.2576
rfoot -14.6596 2.40551
rtoes 15.1182
lfemur -8.37978 7.90263 -17.6483
ltibia 16.316
lfoot -10.9308 6.90191
ltoes -7.30599
544
root 0.106688 17.6873 10.4701 6.30895 -1.59545 -1.51691
lowerback -5.37168 0.480909 0.479441
upperback -0.540008 0.577573 1.32365
thorax 2.44676 0.286852 1.13477
lowerneck -15.8913 0.206045 -2.35485
upperneck 16.924 0.58843 1.36471
head 7.83615 0.262757 0.905886
rclavicle 3.31722e-015 -5.36719e-015
rhumerus -26.0038 -16.3346 -81.4342
rradius 21.1755
rwrist 41.7587
rhand -15.811 -25.7181
rfingers 7.12502
rthumb 10.3825 -55.4418
lclavicle 3.31722e-015 -5.36719e-015
lhumerus -23.5061 2.46525 90.2169
lradius 13.7982
lwrist -3.84577
lhand -23.3877 -6.68641
lfingers 7.12502
lthumb 3.06867 23.2713
rfemur -10.0519 -2.50503 19.8236
rtibia 19.2518
rfoot -14.6531 2.37819
rtoes 15.0798
lfemur -8.39856 7.89831 -17.6346
ltibia 16.3293
lfoot -10.9309 6.88013
ltoes -7.31677
